# xmcd CD database file
#
# Track frame offsets:
#	150
#	34381
#	57332
#	85951
#	113992
#	144001
#	166486
#	205565
#	223486
#	244016
#
# Disc length: 3435 seconds
#
# Revision: 0
# Processed by: cddbd v1.5.1PL0 Copyright (c) Steve Scherf et al.
# Submitted via: CDex 1.51
#
DISCID=8f0d690a
DTITLE=Mark Murphy - Once To Every Heart
DYEAR=2005
DGENRE=Jazz
TTITLE0=I´m Trough With Love
TTITLE1=When I Fall in Love/My One And Only Love
TTITLE2=Skylark/You Don´t Know What Love Is
TTITLE3=Our Game
TTITLE4=I Know You From Somewhere
TTITLE5=Bein´ Green
TTITLE6=Once To Every Heart
TTITLE7=It Never Entered My Mind
TTITLE8=Do Nothing Till You Hear Fom Me
TTITLE9=Love Is Here To Stay
EXTD=YEAR: 2005
EXTT0=
EXTT1=
EXTT2=
EXTT3=
EXTT4=
EXTT5=
EXTT6=
EXTT7=
EXTT8=
EXTT9=
PLAYORDER=
